Coordinates
version=1
nRows=9
nColumns=24
inDegrees=yes

Units are S.I. units (second, meters, Newtons, ...)
Angles are in degrees.

endheader
time	pelvis_tilt	pelvis_list	pelvis_rotation	pelvis_tx	pelvis_ty	pelvis_tz	hip_flexion_r	hip_adduction_r	hip_rotation_r	knee_angle_r	ankle_angle_r	subtalar_angle_r	mtp_angle_r	hip_flexion_l	hip_adduction_l	hip_rotation_l	knee_angle_l	ankle_angle_l	subtalar_angle_l	mtp_angle_l	lumbar_extension	lumbar_bending	lumbar_rotation
      0.62500000	     -0.88377422	      7.47921055	     -0.67203780	     -0.81231658	      1.04712228	      0.30657943	     26.11242509	     -3.39054737	    -11.13874212	      0.66143229	      7.01830317	     -0.66884636	     -0.06732929	    -18.98816145	     12.04054509	     -3.06104798	     -3.31269926	      4.39607638	     -0.82500919	      0.05968130	      5.81864319	     -5.43346589	     -1.19263694
      0.62916667	     -0.81053784	      7.38888382	     -0.54744854	     -0.80617401	      1.04715027	      0.30632031	     25.86974130	     -3.34797675	    -10.90143072	      0.31146023	      7.29411927	     -0.71468622	     -0.08255089	    -19.22726246	     11.88378465	     -2.86634111	     -3.65766607	      4.15061809	     -0.91401949	      0.05136956	      5.75714526	     -5.23200259	     -1.33933566
      0.63333333	     -0.79518177	      7.35033174	     -0.44909045	     -0.80010953	      1.04707055	      0.30614034	     25.73308460	     -3.34126589	    -10.73488430	     -0.10290089	      7.29774940	     -0.73074167	     -0.08577586	    -19.35917796	     11.78867826	     -2.84798791	     -4.08361596	      4.04283237	     -0.93988005	      0.05079077	      5.81259380	     -5.16578859	     -1.36713637
      0.63750000	     -0.71795140	      7.22575923	     -0.39397131	     -0.79380168	      1.04709450	      0.30607267	     25.44395687	     -3.22200951	    -10.23346240	     -0.40837782	      7.52074590	     -0.99922044	     -0.10244948	    -19.58866076	     11.60402677	     -2.80428355	     -4.42237069	      3.48344941	     -0.94967863	      0.05501945	      5.74244863	     -4.96374470	     -1.51839438
      0.64166667	     -0.69609888	      7.19122714	     -0.29434795	     -0.78768988	      1.04707659	      0.30591831	     25.27947888	     -3.21826811	    -10.05616207	     -0.81391903	      7.48682852	     -1.05559490	     -0.10616828	    -19.69047792	     11.50667225	     -2.81712410	     -4.91514556	      3.38017638	     -0.97772758	      0.05868236	      5.80417531	     -4.89485664	     -1.53971258
      0.64583333	     -0.47145391	      7.04300924	     -0.33459974	     -0.78142834	      1.04731173	      0.30620558	     24.79789422	     -3.01387723	     -9.26790378	     -1.02318655	      7.34731279	     -2.13446326	     -0.16408185	    -20.01467907	     11.29602232	     -3.10732387	     -5.33057534	      2.72481676	     -1.01344668	      0.14606829	      5.52911370	     -4.76184024	     -1.76331908
      0.65000000	     -0.48660416	      6.95890728	     -0.19847738	     -0.77509250	      1.04731950	      0.30605829	     24.58742461	     -2.96516680	     -8.93191468	     -1.29985252	      7.25061229	     -2.22665890	     -0.17670246	    -20.08456619	     11.12221942	     -3.00517447	     -5.81234611	      2.46765511	     -0.88235103	      0.17993092	      5.60573142	     -4.59083778	     -1.79083559
      0.65416667	     -0.47477078	      6.91526088	     -0.08838163	     -0.76889879	      1.04735464	      0.30595092	     24.39514659	     -2.95211292	     -8.76829812	     -1.64407875	      7.18415297	     -2.26530990	     -0.17986628	    -20.13929637	     10.99875252	     -3.04568985	     -6.36237258	      2.31273576	     -0.87555090	      0.19062716	      5.69090780	     -4.50052512	     -1.80199668
      0.65833333	     -0.46001401	      6.69631282	     -0.00020739	     -0.76215696	      1.04748086	      0.30603508	     24.06815108	     -2.72357589	     -8.39479572	     -1.76753705	      6.87093303	     -2.64653109	     -0.19811203	    -20.22269391	     10.67185056	     -3.28211086	     -6.84624726	      1.50488292	     -0.66370500	      0.25210095	      5.70646618	     -4.23848132	     -1.88940772
